<svg version="1.1" class="mrc-logo" xmlns="http://www.w3.org/2000/svg" xmlns:xlink="http://www.w3.org/1999/xlink" x="0px" y="0px"
	 viewBox="0 0 156.20166 51.09033" style="enable-background:new 0 0 156.20166 51.09033;" xml:space="preserve">
<g id="mrc-type">
	<polygon id="mrc-m" class="blue-fill" points="0,0.11768 0,51.09033 10.92871,51.09033 10.92871,26.75244 24.67285,40.35596 
		38.34473,26.76318 38.34473,51.09033 49.40723,51.09033 49.40723,0.125 24.67188,24.54248 	"/>
	<path id="mrc-r" class="blue-fill" d="M98.64404,27.48779c2.08105-2.96484,3.13672-6.30371,3.13672-9.92285
		c0-4.7749-1.74805-8.92676-5.19629-12.34082c-3.44434-3.4082-7.63086-5.13672-12.44238-5.13672H58.39795v51.00293h11.03467
		V35.11182h11.33447l9.3623,15.97852h12.75586L92.41455,33.0415C94.87646,31.7583,96.96729,29.89502,98.64404,27.48779z
		 M90.67626,17.56494c0,1.81348-0.63183,3.32031-1.93066,4.60596c-1.30273,1.29004-2.80859,1.91748-4.60352,1.91748H69.43262
		V11.11084h14.70947c1.79395,0,3.2998,0.62744,4.60352,1.91699C90.04443,14.31494,90.67626,15.79932,90.67626,17.56494z"/>
	<path id="mrc-c" class="blue-fill" d="M143.49756,32.88135c-2.5957,4.20117-7.08105,6.70996-11.99805,6.70996
		c-7.77148,0-14.09473-6.32324-14.09473-14.09473s6.32324-14.09424,14.09473-14.09424c4.91699,0,9.40234,2.50879,11.99805,6.71094
		l0.43945,0.71191h12.26465l-0.73047-2.01221C151.81787,6.75684,142.18408,0,131.49951,0
		c-14.05957,0-25.49805,11.4375-25.49805,25.49658c0,14.05957,11.43848,25.49805,25.49805,25.49805
		c10.68457,0,20.31836-6.75684,23.97168-16.81348l0.73047-2.01172h-12.26465L143.49756,32.88135z"/>
</g>
</svg>
